<svg version="1.1" viewBox="0.0 0.0 662.0 409.0" fill="none" stroke="none" stroke-linecap="square" stroke-miterlimit="10" width="662" height="409" xmlns:xlink="http://www.w3.org/1999/xlink" xmlns="http://www.w3.org/2000/svg"><path fill="#ffffff" d="M0 0L662.0 0L662.0 409.0L0 409.0L0 0Z" fill-rule="nonzero"/><path stroke="#cccccc" stroke-width="1.0" stroke-linecap="butt" d="M87.5 65.5L87.5 334.5" fill-rule="nonzero"/><path stroke="#cccccc" stroke-width="1.0" stroke-linecap="butt" d="M178.5 65.5L178.5 334.5" fill-rule="nonzero"/><path stroke="#cccccc" stroke-width="1.0" stroke-linecap="butt" d="M269.5 65.5L269.5 334.5" fill-rule="nonzero"/><path stroke="#333333" stroke-width="1.0" stroke-linecap="butt" d="M360.5 65.5L360.5 334.5" fill-rule="nonzero"/><path stroke="#cccccc" stroke-width="1.0" stroke-linecap="butt" d="M452.5 65.5L452.5 334.5" fill-rule="nonzero"/><path stroke="#cccccc" stroke-width="1.0" stroke-linecap="butt" d="M543.5 65.5L543.5 334.5" fill-rule="nonzero"/><path stroke="#cccccc" stroke-width="1.0" stroke-linecap="butt" d="M634.5 65.5L634.5 334.5" fill-rule="nonzero"/><path stroke="#333333" stroke-width="1.0" stroke-linecap="butt" d="M80.5 334.5L641.5 334.5" fill-rule="nonzero"/><path stroke="#cccccc" stroke-width="1.0" stroke-linecap="butt" d="M80.5 267.5L641.5 267.5" fill-rule="nonzero"/><path stroke="#cccccc" stroke-width="1.0" stroke-linecap="butt" d="M80.5 200.5L641.5 200.5" fill-rule="nonzero"/><path stroke="#cccccc" stroke-width="1.0" stroke-linecap="butt" d="M80.5 132.5L641.5 132.5" fill-rule="nonzero"/><path stroke="#cccccc" stroke-width="1.0" stroke-linecap="butt" d="M80.5 65.5L641.5 65.5" fill-rule="nonzero"/><clipPath id="id_0"><path d="M80.45 65.583336L641.55 65.583336L641.55 334.55L80.45 334.55L80.45 65.583336Z" clip-rule="nonzero"/></clipPath><path fill="#4285f4" clip-path="url(#id_0)" d="M365.5 326.481C365.5 328.96628 363.4853 330.981 361.0 330.981C358.5147 330.981 356.5 328.96628 356.5 326.481C356.5 323.99573 358.5147 321.981 361.0 321.981C363.4853 321.981 365.5 323.99573 365.5 326.481Z" fill-rule="nonzero"/><path fill="#4285f4" clip-path="url(#id_0)" d="M365.5 331.86032C365.5 334.3456 363.4853 336.36032 361.0 336.36032C358.5147 336.36032 356.5 334.3456 356.5 331.86032C356.5 329.37506 358.5147 327.36032 361.0 327.36032C363.4853 327.36032 365.5 329.37506 365.5 331.86032Z" fill-rule="nonzero"/><path fill="#4285f4" clip-path="url(#id_0)" d="M365.5 331.86032C365.5 334.3456 363.4853 336.36032 361.0 336.36032C358.5147 336.36032 356.5 334.3456 356.5 331.86032C356.5 329.37506 358.5147 327.36032 361.0 327.36032C363.4853 327.36032 365.5 329.37506 365.5 331.86032Z" fill-rule="nonzero"/><path fill="#4285f4" clip-path="url(#id_0)" d="M456.74014 326.481C456.74014 328.96628 454.7254 330.981 452.24014 330.981C449.75485 330.981 447.74014 328.96628 447.74014 326.481C447.74014 323.99573 449.75485 321.981 452.24014 321.981C454.7254 321.981 456.74014 323.99573 456.74014 326.481Z" fill-rule="nonzero"/><path fill="#4285f4" clip-path="url(#id_0)" d="M547.9803 318.412C547.9803 320.89728 545.9656 322.912 543.4803 322.912C540.995 322.912 538.9803 320.89728 538.9803 318.412C538.9803 315.92673 540.995 313.912 543.4803 313.912C545.9656 313.912 547.9803 315.92673 547.9803 318.412Z" fill-rule="nonzero"/><path fill="#4285f4" clip-path="url(#id_0)" d="M547.9803 310.343C547.9803 312.82828 545.9656 314.843 543.4803 314.843C540.995 314.843 538.9803 312.82828 538.9803 310.343C538.9803 307.85773 540.995 305.843 543.4803 305.843C545.9656 305.843 547.9803 307.85773 547.9803 310.343Z" fill-rule="nonzero"/><path fill="#4285f4" clip-path="url(#id_0)" d="M547.9803 283.44632C547.9803 285.9316 545.9656 287.94632 543.4803 287.94632C540.995 287.94632 538.9803 285.9316 538.9803 283.44632C538.9803 280.96106 540.995 278.94632 543.4803 278.94632C545.9656 278.94632 547.9803 280.96106 547.9803 283.44632Z" fill-rule="nonzero"/><path fill="#4285f4" clip-path="url(#id_0)" d="M91.779594 334.55C91.779594 337.03528 89.76488 339.05 87.279594 339.05C84.79431 339.05 82.779594 337.03528 82.779594 334.55C82.779594 332.06473 84.79431 330.05 87.279594 330.05C89.76488 330.05 91.779594 332.06473 91.779594 334.55Z" fill-rule="nonzero"/><path fill="#4285f4" clip-path="url(#id_0)" d="M183.01973 334.55C183.01973 337.03528 181.005 339.05 178.51973 339.05C176.03445 339.05 174.01973 337.03528 174.01973 334.55C174.01973 332.06473 176.03445 330.05 178.51973 330.05C181.005 330.05 183.01973 332.06473 183.01973 334.55Z" fill-rule="nonzero"/><path fill="#4285f4" clip-path="url(#id_0)" d="M547.9803 113.99733C547.9803 116.48261 545.9656 118.49733 543.4803 118.49733C540.995 118.49733 538.9803 116.48261 538.9803 113.99733C538.9803 111.512054 540.995 109.49733 543.4803 109.49733C545.9656 109.49733 547.9803 111.512054 547.9803 113.99733Z" fill-rule="nonzero"/><path fill="#4285f4" clip-path="url(#id_0)" d="M274.25986 334.55C274.25986 337.03528 272.24515 339.05 269.75986 339.05C267.2746 339.05 265.25986 337.03528 265.25986 334.55C265.25986 332.06473 267.2746 330.05 269.75986 330.05C272.24515 330.05 274.25986 332.06473 274.25986 334.55Z" fill-rule="nonzero"/><path fill="#4285f4" clip-path="url(#id_0)" d="M456.74014 334.55C456.74014 337.03528 454.7254 339.05 452.24014 339.05C449.75485 339.05 447.74014 337.03528 447.74014 334.55C447.74014 332.06473 449.75485 330.05 452.24014 330.05C454.7254 330.05 456.74014 332.06473 456.74014 334.55Z" fill-rule="nonzero"/><path fill="#4285f4" clip-path="url(#id_0)" d="M547.9803 208.13567C547.9803 210.62094 545.9656 212.63567 543.4803 212.63567C540.995 212.63567 538.9803 210.62094 538.9803 208.13567C538.9803 205.65039 540.995 203.63567 543.4803 203.63567C545.9656 203.63567 547.9803 205.65039 547.9803 208.13567Z" fill-rule="nonzero"/><path fill="#4285f4" clip-path="url(#id_0)" d="M456.74014 329.17065C456.74014 331.65594 454.7254 333.67065 452.24014 333.67065C449.75485 333.67065 447.74014 331.65594 447.74014 329.17065C447.74014 326.6854 449.75485 324.67065 452.24014 324.67065C454.7254 324.67065 456.74014 326.6854 456.74014 329.17065Z" fill-rule="nonzero"/><path fill="#4285f4" clip-path="url(#id_0)" d="M456.74014 334.55C456.74014 337.03528 454.7254 339.05 452.24014 339.05C449.75485 339.05 447.74014 337.03528 447.74014 334.55C447.74014 332.06473 449.75485 330.05 452.24014 330.05C454.7254 330.05 456.74014 332.06473 456.74014 334.55Z" fill-rule="nonzero"/><path fill="#4285f4" clip-path="url(#id_0)" d="M456.74014 334.55C456.74014 337.03528 454.7254 339.05 452.24014 339.05C449.75485 339.05 447.74014 337.03528 447.74014 334.55C447.74014 332.06473 449.75485 330.05 452.24014 330.05C454.7254 330.05 456.74014 332.06473 456.74014 334.55Z" fill-rule="nonzero"/><path fill="#4285f4" clip-path="url(#id_0)" d="M639.2204 323.79132C639.2204 326.2766 637.2057 328.29132 634.7204 328.29132C632.2351 328.29132 630.2204 326.2766 630.2204 323.79132C630.2204 321.30606 632.2351 319.29132 634.7204 319.29132C637.2057 319.29132 639.2204 321.30606 639.2204 323.79132Z" fill-rule="nonzero"/><path fill="#4285f4" clip-path="url(#id_0)" d="M456.74014 283.44632C456.74014 285.9316 454.7254 287.94632 452.24014 287.94632C449.75485 287.94632 447.74014 285.9316 447.74014 283.44632C447.74014 280.96106 449.75485 278.94632 452.24014 278.94632C454.7254 278.94632 456.74014 280.96106 456.74014 283.44632Z" fill-rule="nonzero"/><path fill="#4285f4" clip-path="url(#id_0)" d="M456.74014 334.55C456.74014 337.03528 454.7254 339.05 452.24014 339.05C449.75485 339.05 447.74014 337.03528 447.74014 334.55C447.74014 332.06473 449.75485 330.05 452.24014 330.05C454.7254 330.05 456.74014 332.06473 456.74014 334.55Z" fill-rule="nonzero"/><path fill="#424242" d="M342.54688 385.55L341.42188 385.55L337.125 378.97186L337.125 385.55L335.98438 385.55L335.98438 377.01874L337.125 377.01874L341.42188 383.6281L341.42188 377.01874L342.54688 377.01874L342.54688 385.55ZM347.45312 385.675Q346.15625 385.675 345.34375 384.83124Q344.54688 383.97186 344.54688 382.55L344.54688 382.3625Q344.54688 381.40936 344.90625 380.675Q345.26562 379.925 345.90625 379.51874Q346.5625 379.09686 347.3125 379.09686Q348.54688 379.09686 349.23438 379.90936Q349.92188 380.72186 349.92188 382.2375L349.92188 382.6906L345.625 382.6906Q345.65625 383.6281 346.17188 384.20624Q346.70312 384.78436 347.51562 384.78436Q348.07812 384.78436 348.46875 384.55Q348.875 384.3156 349.1875 383.925L349.84375 384.4406Q349.04688 385.675 347.45312 385.675ZM347.3125 379.9875Q346.65625 379.9875 346.20312 380.47186Q345.76562 380.9406 345.67188 381.8L348.84375 381.8L348.84375 381.72186Q348.79688 380.89374 348.39062 380.4406Q348.0 379.9875 347.3125 379.9875ZM352.29688 377.675L352.29688 379.20624L353.46875 379.20624L353.46875 380.05L352.29688 380.05L352.29688 383.97186Q352.29688 384.3625 352.45312 384.55Q352.60938 384.7375 352.98438 384.7375Q353.17188 384.7375 353.5 384.675L353.5 385.55Q353.07812 385.675 352.67188 385.675Q351.95312 385.675 351.57812 385.2375Q351.20312 384.78436 351.20312 383.97186L351.20312 380.05L350.04688 380.05L350.04688 379.20624L351.20312 379.20624L351.20312 377.675L352.29688 377.675ZM360.5 381.7531Q359.0625 381.33124 358.39062 380.72186Q357.73438 380.1125 357.73438 379.22186Q357.73438 378.22186 358.53125 377.5656Q359.34375 376.89374 360.64062 376.89374Q361.51562 376.89374 362.20312 377.2375Q362.89062 377.58124 363.26562 378.175Q363.65625 378.76874 363.65625 379.4875L362.51562 379.4875Q362.51562 378.70624 362.01562 378.26874Q361.53125 377.83124 360.64062 377.83124Q359.8125 377.83124 359.34375 378.20624Q358.875 378.5656 358.875 379.20624Q358.875 379.7375 359.3125 380.09686Q359.76562 380.45624 360.82812 380.7531Q361.89062 381.05 362.48438 381.40936Q363.09375 381.76874 363.375 382.2531Q363.67188 382.7375 363.67188 383.3781Q363.67188 384.425 362.85938 385.05Q362.04688 385.675 360.70312 385.675Q359.8125 385.675 359.04688 385.33124Q358.29688 384.9875 357.875 384.40936Q357.46875 383.8156 357.46875 383.08124L358.59375 383.08124Q358.59375 383.84686 359.17188 384.3Q359.75 384.7531 360.70312 384.7531Q361.59375 384.7531 362.0625 384.39374Q362.53125 384.01874 362.53125 383.39374Q362.53125 382.76874 362.09375 382.425Q361.65625 382.08124 360.5 381.7531ZM367.35938 384.78436Q367.9375 384.78436 368.375 384.4406Q368.8125 384.08124 368.85938 383.55L369.89062 383.55Q369.85938 384.09686 369.5 384.59686Q369.15625 385.08124 368.57812 385.3781Q368.01562 385.675 367.35938 385.675Q366.0625 385.675 365.29688 384.8156Q364.54688 383.9406 364.54688 382.4406L364.54688 382.2531Q364.54688 381.33124 364.875 380.6125Q365.21875 379.89374 365.84375 379.5031Q366.48438 379.09686 367.35938 379.09686Q368.42188 379.09686 369.125 379.7375Q369.84375 380.3625 369.89062 381.39374L368.85938 381.39374Q368.8125 380.76874 368.39062 380.3781Q367.96875 379.9875 367.35938 379.9875Q366.53125 379.9875 366.07812 380.58124Q365.625 381.175 365.625 382.3L365.625 382.5031Q365.625 383.59686 366.07812 384.1906Q366.53125 384.78436 367.35938 384.78436ZM370.53125 382.3156Q370.53125 381.39374 370.89062 380.64374Q371.26562 379.89374 371.92188 379.5031Q372.57812 379.09686 373.40625 379.09686Q374.70312 379.09686 375.5 379.9875Q376.3125 380.8781 376.3125 382.3781L376.3125 382.45624Q376.3125 383.3781 375.95312 384.1125Q375.59375 384.84686 374.9375 385.26874Q374.28125 385.675 373.42188 385.675Q372.14062 385.675 371.32812 384.78436Q370.53125 383.8781 370.53125 382.39374L370.53125 382.3156ZM371.625 382.45624Q371.625 383.5031 372.10938 384.14374Q372.60938 384.78436 373.42188 384.78436Q374.25 384.78436 374.73438 384.14374Q375.21875 383.4875 375.21875 382.3156Q375.21875 381.28436 374.71875 380.64374Q374.23438 379.9875 373.40625 379.9875Q372.60938 379.9875 372.10938 380.6281Q371.625 381.2531 371.625 382.45624ZM380.89062 380.175Q380.64062 380.14374 380.35938 380.14374Q379.28125 380.14374 378.90625 381.05L378.90625 385.55L377.82812 385.55L377.82812 379.20624L378.875 379.20624L378.89062 379.9406Q379.42188 379.09686 380.40625 379.09686Q380.71875 379.09686 380.89062 379.175L380.89062 380.175ZM384.45312 385.675Q383.15625 385.675 382.34375 384.83124Q381.54688 383.97186 381.54688 382.55L381.54688 382.3625Q381.54688 381.40936 381.90625 380.675Q382.26562 379.925 382.90625 379.51874Q383.5625 379.09686 384.3125 379.09686Q385.54688 379.09686 386.23438 379.90936Q386.92188 380.72186 386.92188 382.2375L386.92188 382.6906L382.625 382.6906Q382.65625 383.6281 383.17188 384.20624Q383.70312 384.78436 384.51562 384.78436Q385.07812 384.78436 385.46875 384.55Q385.875 384.3156 386.1875 383.925L386.84375 384.4406Q386.04688 385.675 384.45312 385.675ZM384.3125 379.9875Q383.65625 379.9875 383.20312 380.47186Q382.76562 380.9406 382.67188 381.8L385.84375 381.8L385.84375 381.72186Q385.79688 380.89374 385.39062 380.4406Q385.0 379.9875 384.3125 379.9875Z" fill-rule="nonzero"/><path fill="#424242" d="M32.44999 253.76979L32.44999 254.89479L25.871862 259.19165L32.44999 259.19165L32.44999 260.33228L23.918737 260.33228L23.918737 259.19165L30.528112 254.89479L23.918737 254.89479L23.918737 253.76979L32.44999 253.76979ZM31.824987 247.58229Q32.57499 248.20729 32.57499 249.44167Q32.57499 250.45729 31.981237 250.98854Q31.387487 251.51979 30.231237 251.51979L26.106237 251.51979L26.106237 250.44167L30.199987 250.44167Q31.653112 250.44167 31.653112 249.26979Q31.653112 248.01979 30.715612 247.61354L26.106237 247.61354L26.106237 246.51979L32.44999 246.51979L32.44999 247.55104L31.824987 247.58229ZM26.106237 243.47292L26.809362 243.44167Q25.996862 242.75417 25.996862 241.56667Q25.996862 240.23854 27.012487 239.75417Q26.559362 239.44167 26.278112 238.94167Q25.996862 238.42604 25.996862 237.73854Q25.996862 235.64479 28.199987 235.61354L32.44999 235.61354L32.44999 236.69167L28.262487 236.69167Q27.590612 236.69167 27.262487 237.00417Q26.918737 237.31667 26.918737 238.05104Q26.918737 238.66042 27.278112 239.06667Q27.637487 239.45729 28.246862 239.51979L32.44999 239.51979L32.44999 240.59792L28.293737 240.59792Q26.918737 240.59792 26.918737 241.95729Q26.918737 243.01979 27.824987 243.41042L32.44999 243.41042L32.44999 244.50417L26.106237 244.50417L26.106237 243.47292ZM29.356237 228.12917Q30.809362 228.12917 31.699987 228.80104Q32.57499 229.45729 32.57499 230.58229Q32.57499 231.78542 31.715612 232.44167L32.44999 232.50417L32.44999 233.48854L23.449987 233.48854L23.449987 232.41042L26.809362 232.41042Q25.996862 231.75417 25.996862 230.59792Q25.996862 229.44167 26.871862 228.78542Q27.731237 228.12917 29.262487 228.12917L29.356237 228.12917ZM29.231237 229.20729Q28.121862 229.20729 27.528112 229.64479Q26.918737 230.06667 26.918737 230.86354Q26.918737 231.94167 27.903112 232.41042L30.653112 232.41042Q31.653112 231.91042 31.653112 230.86354Q31.653112 230.08229 31.043737 229.64479Q30.434362 229.20729 29.231237 229.20729ZM32.57499 223.86354Q32.57499 225.16042 31.731237 225.97292Q30.871862 226.76979 29.449987 226.76979L29.262487 226.76979Q28.309362 226.76979 27.574987 226.41042Q26.824987 226.05104 26.418737 225.41042Q25.996862 224.75417 25.996862 224.00417Q25.996862 222.76979 26.809362 222.08229Q27.621862 221.39479 29.137487 221.39479L29.590612 221.39479L29.590612 225.69167Q30.528112 225.66042 31.106237 225.14479Q31.684362 224.61354 31.684362 223.80104Q31.684362 223.23854 31.449987 222.84792Q31.215612 222.44167 30.824987 222.12917L31.340612 221.47292Q32.57499 222.26979 32.57499 223.86354ZM26.887487 224.00417Q26.887487 224.66042 27.371862 225.11354Q27.840612 225.55104 28.699987 225.64479L28.699987 222.47292L28.621862 222.47292Q27.793737 222.51979 27.340612 222.92604Q26.887487 223.31667 26.887487 224.00417ZM27.074987 217.42604Q27.043737 217.67604 27.043737 217.95729Q27.043737 219.03542 27.949987 219.41042L32.44999 219.41042L32.44999 220.48854L26.106237 220.48854L26.106237 219.44167L26.840612 219.42604Q25.996862 218.89479 25.996862 217.91042Q25.996862 217.59792 26.074987 217.42604L27.074987 217.42604ZM29.215612 213.78542Q28.293737 213.78542 27.543737 213.42604Q26.793737 213.05104 26.403112 212.39479Q25.996862 211.73854 25.996862 210.91042Q25.996862 209.61354 26.887487 208.81667Q27.778112 208.00417 29.278112 208.00417L29.356237 208.00417Q30.278112 208.00417 31.012487 208.36354Q31.746862 208.72292 32.16874 209.37917Q32.57499 210.03542 32.57499 210.89479Q32.57499 212.17604 31.684362 212.98854Q30.778112 213.78542 29.293737 213.78542L29.215612 213.78542ZM29.356237 212.69167Q30.403112 212.69167 31.043737 212.20729Q31.684362 211.70729 31.684362 210.89479Q31.684362 210.06667 31.043737 209.58229Q30.387487 209.09792 29.215612 209.09792Q28.184362 209.09792 27.543737 209.59792Q26.887487 210.08229 26.887487 210.91042Q26.887487 211.70729 27.528112 212.20729Q28.153112 212.69167 29.356237 212.69167ZM32.44999 205.95729L26.949987 205.95729L26.949987 206.95729L26.106237 206.95729L26.106237 205.95729L25.465612 205.95729Q24.434362 205.95729 23.887487 205.42604Q23.324987 204.87917 23.324987 203.87917Q23.324987 203.50417 23.418737 203.12917L24.309362 203.19167Q24.246862 203.47292 24.246862 203.76979Q24.246862 204.30104 24.559362 204.59792Q24.871862 204.87917 25.434362 204.87917L26.106237 204.87917L26.106237 203.51979L26.949987 203.51979L26.949987 204.87917L32.44999 204.87917L32.44999 205.95729ZM28.996862 196.19167L28.996862 198.20729L32.44999 198.20729L32.44999 199.33229L23.918737 199.33229L23.918737 196.50417Q23.918737 195.06667 24.574987 194.30104Q25.231237 193.51979 26.481237 193.51979Q27.278112 193.51979 27.871862 193.95729Q28.465612 194.37917 28.762487 195.14479L32.371864 193.14479L32.44999 193.14479L32.44999 194.34792L28.996862 196.19167ZM28.074987 198.20729L28.074987 196.47292Q28.074987 195.62917 27.653112 195.14479Q27.215612 194.64479 26.481237 194.64479Q25.699987 194.64479 25.278112 195.11354Q24.856237 195.58229 24.840612 196.47292L24.840612 198.20729L28.074987 198.20729ZM32.57499 189.86354Q32.57499 191.16042 31.731237 191.97292Q30.871862 192.76979 29.449987 192.76979L29.262487 192.76979Q28.309362 192.76979 27.574987 192.41042Q26.824987 192.05104 26.418737 191.41042Q25.996862 190.75417 25.996862 190.00417Q25.996862 188.76979 26.809362 188.08229Q27.621862 187.39479 29.137487 187.39479L29.590612 187.39479L29.590612 191.69167Q30.528112 191.66042 31.106237 191.14479Q31.684362 190.61354 31.684362 189.80104Q31.684362 189.23854 31.449987 188.84792Q31.215612 188.44167 30.824987 188.12917L31.340612 187.47292Q32.57499 188.26979 32.57499 189.86354ZM26.887487 190.00417Q26.887487 190.66042 27.371862 191.11354Q27.840612 191.55104 28.699987 191.64479L28.699987 188.47292L28.621862 188.47292Q27.793737 188.51979 27.340612 188.92604Q26.887487 189.31667 26.887487 190.00417ZM24.574987 185.01979L26.106237 185.01979L26.106237 183.84792L26.949987 183.84792L26.949987 185.01979L30.871862 185.01979Q31.262487 185.01979 31.449987 184.86354Q31.637487 184.70729 31.637487 184.33229Q31.637487 184.14479 31.574987 183.81667L32.44999 183.81667Q32.57499 184.23854 32.57499 184.64479Q32.57499 185.36354 32.13749 185.73854Q31.684362 186.11354 30.871862 186.11354L26.949987 186.11354L26.949987 187.26979L26.106237 187.26979L26.106237 186.11354L24.574987 186.11354L24.574987 185.01979ZM30.949987 176.87917L26.106237 175.66042L26.106237 174.58229L32.44999 176.42604L32.44999 177.30104L27.637487 178.84792L32.44999 180.34792L32.44999 181.22292L26.106237 183.06667L26.106237 181.98854L30.856237 180.73854L26.106237 179.25417L26.106237 178.39479L30.949987 176.87917ZM32.57499 170.86354Q32.57499 172.16042 31.731237 172.97292Q30.871862 173.76979 29.449987 173.76979L29.262487 173.76979Q28.309362 173.76979 27.574987 173.41042Q26.824987 173.05104 26.418737 172.41042Q25.996862 171.75417 25.996862 171.00417Q25.996862 169.76979 26.809362 169.08229Q27.621862 168.39479 29.137487 168.39479L29.590612 168.39479L29.590612 172.69167Q30.528112 172.66042 31.106237 172.14479Q31.684362 171.61354 31.684362 170.80104Q31.684362 170.23854 31.449987 169.84792Q31.215612 169.44167 30.824987 169.12917L31.340612 168.47292Q32.57499 169.26979 32.57499 170.86354ZM26.887487 171.00417Q26.887487 171.66042 27.371862 172.11354Q27.840612 172.55104 28.699987 172.64479L28.699987 169.47292L28.621862 169.47292Q27.793737 169.51979 27.340612 169.92604Q26.887487 170.31667 26.887487 171.00417ZM32.57499 164.86354Q32.57499 166.16042 31.731237 166.97292Q30.871862 167.76979 29.449987 167.76979L29.262487 167.76979Q28.309362 167.76979 27.574987 167.41042Q26.824987 167.05104 26.418737 166.41042Q25.996862 165.75417 25.996862 165.00417Q25.996862 163.76979 26.809362 163.08229Q27.621862 162.39479 29.137487 162.39479L29.590612 162.39479L29.590612 166.69167Q30.528112 166.66042 31.106237 166.14479Q31.684362 165.61354 31.684362 164.80104Q31.684362 164.23854 31.449987 163.84792Q31.215612 163.44167 30.824987 163.12917L31.340612 162.47292Q32.57499 163.26979 32.57499 164.86354ZM26.887487 165.00417Q26.887487 165.66042 27.371862 166.11354Q27.840612 166.55104 28.699987 166.64479L28.699987 163.47292L28.621862 163.47292Q27.793737 163.51979 27.340612 163.92604Q26.887487 164.31667 26.887487 165.00417ZM24.574987 160.01979L26.106237 160.01979L26.106237 158.84792L26.949987 158.84792L26.949987 160.01979L30.871862 160.01979Q31.262487 160.01979 31.449987 159.86354Q31.637487 159.70729 31.637487 159.33229Q31.637487 159.14479 31.574987 158.81667L32.44999 158.81667Q32.57499 159.23854 32.57499 159.64479Q32.57499 160.36354 32.13749 160.73854Q31.684362 161.11354 30.871862 161.11354L26.949987 161.11354L26.949987 162.26979L26.106237 162.26979L26.106237 161.11354L24.574987 161.11354L24.574987 160.01979ZM30.762487 153.80104Q30.324987 153.80104 30.090612 154.14479Q29.840612 154.47292 29.668737 155.30104Q29.496862 156.11354 29.246862 156.59792Q28.996862 157.08229 28.668737 157.31667Q28.324987 157.53542 27.856237 157.53542Q27.074987 157.53542 26.543737 156.87917Q25.996862 156.22292 25.996862 155.19167Q25.996862 154.11354 26.559362 153.45729Q27.106237 152.78542 27.965612 152.78542L27.965612 153.86354Q27.528112 153.86354 27.215612 154.25417Q26.887487 154.62917 26.887487 155.19167Q26.887487 155.78542 27.153112 156.12917Q27.403112 156.45729 27.809362 156.45729Q28.199987 156.45729 28.403112 156.14479Q28.606237 155.83229 28.793737 155.01979Q28.965612 154.20729 29.215612 153.70729Q29.465612 153.20729 29.824987 152.97292Q30.184362 152.72292 30.684362 152.72292Q31.543737 152.72292 32.059364 153.41042Q32.57499 154.08229 32.57499 155.16042Q32.57499 155.92604 32.309364 156.51979Q32.028114 157.09792 31.543737 157.42604Q31.059362 157.75417 30.496862 157.75417L30.496862 156.67604Q31.043737 156.64479 31.371862 156.23854Q31.684362 155.83229 31.684362 155.16042Q31.684362 154.55104 31.434362 154.17604Q31.184362 153.80104 30.762487 153.80104Z" fill-rule="nonzero"/><path fill="#757575" d="M73.5125 335.40936Q73.5125 337.3156 72.85625 338.2531Q72.21562 339.175 70.825 339.175Q69.46562 339.175 68.80937 338.26874Q68.15312 337.3625 68.12187 335.55L68.12187 334.1125Q68.12187 332.22186 68.7625 331.3156Q69.41875 330.39374 70.80937 330.39374Q72.18437 330.39374 72.84062 331.28436Q73.49687 332.15936 73.5125 334.0031L73.5125 335.40936ZM72.41875 333.925Q72.41875 332.55 72.02812 331.925Q71.65312 331.28436 70.80937 331.28436Q69.98125 331.28436 69.59062 331.925Q69.21562 332.55 69.21562 333.84686L69.21562 335.58124Q69.21562 336.95624 69.60625 337.6281Q70.0125 338.28436 70.825 338.28436Q71.62187 338.28436 72.0125 337.65936Q72.40312 337.03436 72.41875 335.70624L72.41875 333.925Z" fill-rule="nonzero"/><path fill="#757575" d="M66.74687 271.80832L61.153126 271.80832L61.153126 271.02707L64.10625 267.74582Q64.7625 266.99582 65.0125 266.5427Q65.2625 266.07394 65.2625 265.57394Q65.2625 264.90207 64.85625 264.4802Q64.46562 264.0427 63.778126 264.0427Q62.98125 264.0427 62.528126 264.51144Q62.075 264.96457 62.075 265.7927L60.996876 265.7927Q60.996876 264.6052 61.746876 263.88644Q62.5125 263.15207 63.778126 263.15207Q64.98125 263.15207 65.66875 263.77707Q66.35625 264.40207 66.35625 265.44894Q66.35625 266.69894 64.74687 268.44894L62.465626 270.9177L66.74687 270.9177L66.74687 271.80832ZM68.65312 267.52707L69.09062 263.27707L73.46562 263.27707L73.46562 264.27707L70.0125 264.27707L69.74687 266.6052Q70.3875 266.2302 71.18437 266.2302Q72.34062 266.2302 73.02812 267.01144Q73.71562 267.77707 73.71562 269.08957Q73.71562 270.40207 72.99687 271.1677Q72.29375 271.93332 71.0125 271.93332Q69.8875 271.93332 69.16875 271.30832Q68.45 270.6677 68.35625 269.55832L69.37187 269.55832Q69.48125 270.2927 69.90312 270.6677Q70.325 271.0427 71.0125 271.0427Q71.7625 271.0427 72.2 270.52707Q72.6375 270.01144 72.6375 269.1052Q72.6375 268.24582 72.16875 267.7302Q71.7 267.21457 70.91875 267.21457Q70.21562 267.21457 69.80937 267.51144L69.52812 267.74582L68.65312 267.52707Z" fill-rule="nonzero"/><path fill="#757575" d="M61.653126 200.28542L62.090626 196.03542L66.46562 196.03542L66.46562 197.03542L63.0125 197.03542L62.746876 199.36354Q63.3875 198.98854 64.18437 198.98854Q65.34062 198.98854 66.02812 199.76979Q66.71562 200.53542 66.71562 201.84792Q66.71562 203.16042 65.99687 203.92604Q65.29375 204.69167 64.0125 204.69167Q62.8875 204.69167 62.16875 204.06667Q61.45 203.42604 61.35625 202.31667L62.371876 202.31667Q62.48125 203.05104 62.903126 203.42604Q63.325 203.80104 64.0125 203.80104Q64.7625 203.80104 65.2 203.28542Q65.6375 202.76979 65.6375 201.86354Q65.6375 201.00417 65.16875 200.48854Q64.7 199.97292 63.91875 199.97292Q63.215626 199.97292 62.809376 200.26979L62.528126 200.50417L61.653126 200.28542ZM73.5125 200.92604Q73.5125 202.83229 72.85625 203.76979Q72.21562 204.69167 70.825 204.69167Q69.46562 204.69167 68.80937 203.78542Q68.15312 202.87917 68.12187 201.06667L68.12187 199.62917Q68.12187 197.73854 68.7625 196.83229Q69.41875 195.91042 70.80937 195.91042Q72.18437 195.91042 72.84062 196.80104Q73.49687 197.67604 73.5125 199.51979L73.5125 200.92604ZM72.41875 199.44167Q72.41875 198.06667 72.02812 197.44167Q71.65312 196.80104 70.80937 196.80104Q69.98125 196.80104 69.59062 197.44167Q69.21562 198.06667 69.21562 199.36354L69.21562 201.09792Q69.21562 202.47292 69.60625 203.14479Q70.0125 203.80104 70.825 203.80104Q71.62187 203.80104 72.0125 203.17604Q72.40312 202.55104 72.41875 201.22292L72.41875 199.44167Z" fill-rule="nonzero"/><path fill="#757575" d="M66.66875 129.40312L63.1375 137.325L61.996876 137.325L65.5125 129.68437L60.903126 129.68437L60.903126 128.79375L66.66875 128.79375L66.66875 129.40312ZM68.65312 133.04375L69.09062 128.79375L73.46562 128.79375L73.46562 129.79375L70.0125 129.79375L69.74687 132.12187Q70.3875 131.74687 71.18437 131.74687Q72.34062 131.74687 73.02812 132.52812Q73.71562 133.29375 73.71562 134.60625Q73.71562 135.91875 72.99687 136.68437Q72.29375 137.45 71.0125 137.45Q69.8875 137.45 69.16875 136.825Q68.45 136.18437 68.35625 135.075L69.37187 135.075Q69.48125 135.80937 69.90312 136.18437Q70.325 136.55937 71.0125 136.55937Q71.7625 136.55937 72.2 136.04375Q72.6375 135.52812 72.6375 134.62187Q72.6375 133.7625 72.16875 133.24687Q71.7 132.73125 70.91875 132.73125Q70.21562 132.73125 69.80937 133.02812L69.52812 133.2625L68.65312 133.04375Z" fill-rule="nonzero"/><path fill="#757575" d="M57.715626 70.083336L56.6375 70.083336L56.6375 62.864586L54.45 63.66146L54.45 62.677086L57.559376 61.50521L57.715626 61.50521L57.715626 70.083336ZM66.5125 66.44271Q66.5125 68.34896 65.85625 69.28646Q65.21562 70.208336 63.825 70.208336Q62.465626 70.208336 61.809376 69.302086Q61.153126 68.395836 61.121876 66.583336L61.121876 65.145836Q61.121876 63.25521 61.7625 62.34896Q62.41875 61.427086 63.809376 61.427086Q65.18437 61.427086 65.84062 62.31771Q66.49687 63.19271 66.5125 65.03646L66.5125 66.44271ZM65.41875 64.958336Q65.41875 63.583336 65.02812 62.958336Q64.65312 62.31771 63.809376 62.31771Q62.98125 62.31771 62.590626 62.958336Q62.215626 63.583336 62.215626 64.88021L62.215626 66.614586Q62.215626 67.989586 62.60625 68.66146Q63.0125 69.31771 63.825 69.31771Q64.62187 69.31771 65.0125 68.69271Q65.40312 68.06771 65.41875 66.739586L65.41875 64.958336ZM73.5125 66.44271Q73.5125 68.34896 72.85625 69.28646Q72.21562 70.208336 70.825 70.208336Q69.46562 70.208336 68.80937 69.302086Q68.15312 68.395836 68.12187 66.583336L68.12187 65.145836Q68.12187 63.25521 68.7625 62.34896Q69.41875 61.427086 70.80937 61.427086Q72.18437 61.427086 72.84062 62.31771Q73.49687 63.19271 73.5125 65.03646L73.5125 66.44271ZM72.41875 64.958336Q72.41875 63.583336 72.02812 62.958336Q71.65312 62.31771 70.80937 62.31771Q69.98125 62.31771 69.59062 62.958336Q69.21562 63.583336 69.21562 64.88021L69.21562 66.614586Q69.21562 67.989586 69.60625 68.66146Q70.0125 69.31771 70.825 69.31771Q71.62187 69.31771 72.0125 68.69271Q72.40312 68.06771 72.41875 66.739586L72.41875 64.958336Z" fill-rule="nonzero"/><path fill="#757575" d="M85.35772 349.3625L82.498344 349.3625L82.498344 348.4875L85.35772 348.4875L85.35772 349.3625ZM87.560844 347.7531L88.373344 347.7531Q89.154594 347.7375 89.592094 347.34686Q90.029594 346.95624 90.029594 346.28436Q90.029594 344.78436 88.529594 344.78436Q87.82647 344.78436 87.404594 345.1906Q86.998344 345.59686 86.998344 346.2531L85.904594 346.2531Q85.904594 345.2375 86.63897 344.5656Q87.38897 343.89374 88.529594 343.89374Q89.73272 343.89374 90.42022 344.53436Q91.10772 345.175 91.10772 346.3156Q91.10772 346.8781 90.748344 347.39374Q90.38897 347.90936 89.76397 348.175Q90.467094 348.39374 90.842094 348.90936Q91.23272 349.425 91.23272 350.175Q91.23272 351.3156 90.48272 352.0031Q89.73272 352.675 88.529594 352.675Q87.342094 352.675 86.57647 352.01874Q85.82647 351.3625 85.82647 350.3L86.92022 350.3Q86.92022 350.97186 87.35772 351.3781Q87.79522 351.78436 88.54522 351.78436Q89.32647 351.78436 89.73272 351.3781Q90.154594 350.95624 90.154594 350.1906Q90.154594 349.45624 89.70147 349.0656Q89.248344 348.65936 88.373344 348.64374L87.560844 348.64374L87.560844 347.7531Z" fill-rule="nonzero"/><path fill="#757575" d="M176.59785 349.3625L173.73848 349.3625L173.73848 348.4875L176.59785 348.4875L176.59785 349.3625ZM182.8166 352.55L177.22285 352.55L177.22285 351.76874L180.17598 348.4875Q180.83223 347.7375 181.08223 347.28436Q181.33223 346.8156 181.33223 346.3156Q181.33223 345.64374 180.92598 345.22186Q180.53535 344.78436 179.84785 344.78436Q179.05098 344.78436 178.59785 345.2531Q178.14473 345.70624 178.14473 346.53436L177.0666 346.53436Q177.0666 345.34686 177.8166 344.6281Q178.58223 343.89374 179.84785 343.89374Q181.05098 343.89374 181.73848 344.51874Q182.42598 345.14374 182.42598 346.1906Q182.42598 347.4406 180.8166 349.1906L178.53535 351.65936L182.8166 351.65936L182.8166 352.55Z" fill-rule="nonzero"/><path fill="#757575" d="M267.83798 349.3625L264.9786 349.3625L264.9786 348.4875L267.83798 348.4875L267.83798 349.3625ZM272.02548 352.55L270.94736 352.55L270.94736 345.33124L268.75986 346.1281L268.75986 345.14374L271.86923 343.97186L272.02548 343.97186L272.02548 352.55Z" fill-rule="nonzero"/><path fill="#757575" d="M363.5625 348.90936Q363.5625 350.8156 362.90625 351.7531Q362.26562 352.675 360.875 352.675Q359.51562 352.675 358.85938 351.76874Q358.20312 350.8625 358.17188 349.05L358.17188 347.6125Q358.17188 345.72186 358.8125 344.8156Q359.46875 343.89374 360.85938 343.89374Q362.23438 343.89374 362.89062 344.78436Q363.54688 345.65936 363.5625 347.5031L363.5625 348.90936ZM362.46875 347.425Q362.46875 346.05 362.07812 345.425Q361.70312 344.78436 360.85938 344.78436Q360.03125 344.78436 359.64062 345.425Q359.26562 346.05 359.26562 347.34686L359.26562 349.08124Q359.26562 350.45624 359.65625 351.1281Q360.0625 351.78436 360.875 351.78436Q361.67188 351.78436 362.0625 351.15936Q362.45312 350.53436 362.46875 349.20624L362.46875 347.425Z" fill-rule="nonzero"/><path fill="#757575" d="M453.00577 352.55L451.92764 352.55L451.92764 345.33124L449.74014 346.1281L449.74014 345.14374L452.84952 343.97186L453.00577 343.97186L453.00577 352.55Z" fill-rule="nonzero"/><path fill="#757575" d="M546.27716 352.55L540.6834 352.55L540.6834 351.76874L543.63654 348.4875Q544.2928 347.7375 544.5428 347.28436Q544.7928 346.8156 544.7928 346.3156Q544.7928 345.64374 544.38654 345.22186Q543.9959 344.78436 543.3084 344.78436Q542.51154 344.78436 542.0584 345.2531Q541.6053 345.70624 541.6053 346.53436L540.52716 346.53436Q540.52716 345.34686 541.27716 344.6281Q542.0428 343.89374 543.3084 343.89374Q544.51154 343.89374 545.19904 344.51874Q545.88654 345.14374 545.88654 346.1906Q545.88654 347.4406 544.27716 349.1906L541.9959 351.65936L546.27716 351.65936L546.27716 352.55Z" fill-rule="nonzero"/><path fill="#757575" d="M633.50165 347.7531L634.31415 347.7531Q635.0954 347.7375 635.5329 347.34686Q635.9704 346.95624 635.9704 346.28436Q635.9704 344.78436 634.4704 344.78436Q633.7673 344.78436 633.3454 345.1906Q632.93915 345.59686 632.93915 346.2531L631.8454 346.2531Q631.8454 345.2375 632.5798 344.5656Q633.3298 343.89374 634.4704 343.89374Q635.6735 343.89374 636.361 344.53436Q637.0485 345.175 637.0485 346.3156Q637.0485 346.8781 636.68915 347.39374Q636.3298 347.90936 635.7048 348.175Q636.4079 348.39374 636.7829 348.90936Q637.1735 349.425 637.1735 350.175Q637.1735 351.3156 636.4235 352.0031Q635.6735 352.675 634.4704 352.675Q633.2829 352.675 632.5173 352.01874Q631.7673 351.3625 631.7673 350.3L632.861 350.3Q632.861 350.97186 633.2985 351.3781Q633.736 351.78436 634.486 351.78436Q635.2673 351.78436 635.6735 351.3781Q636.0954 350.95624 636.0954 350.1906Q636.0954 349.45624 635.6423 349.0656Q635.18915 348.65936 634.31415 348.64374L633.50165 348.64374L633.50165 347.7531Z" fill-rule="nonzero"/><path fill="#757575" d="M26.29375 33.10625Q23.871876 32.41875 22.778126 31.41875Q21.684376 30.403126 21.684376 28.91875Q21.684376 27.23125 23.028126 26.1375Q24.371876 25.028126 26.5125 25.028126Q27.98125 25.028126 29.121876 25.60625Q30.278126 26.16875 30.903126 27.16875Q31.528126 28.153126 31.528126 29.340626L29.653126 29.340626Q29.653126 28.059376 28.825 27.325Q28.0125 26.575 26.5125 26.575Q25.121876 26.575 24.340626 27.184376Q23.575 27.79375 23.575 28.8875Q23.575 29.746876 24.309376 30.35625Q25.04375 30.95 26.809376 31.45Q28.590626 31.95 29.590626 32.559376Q30.590626 33.153126 31.075 33.95Q31.559376 34.746876 31.559376 35.840626Q31.559376 37.559376 30.215626 38.60625Q28.871876 39.653126 26.60625 39.653126Q25.153126 39.653126 23.871876 39.090626Q22.60625 38.528126 21.91875 37.559376Q21.23125 36.575 21.23125 35.325L23.121876 35.325Q23.121876 36.621876 24.075 37.371876Q25.028126 38.10625 26.60625 38.10625Q28.090626 38.10625 28.8875 37.5125Q29.684376 36.903126 29.684376 35.85625Q29.684376 34.809376 28.95 34.246876Q28.215626 33.66875 26.29375 33.10625ZM38.2 39.653126Q36.059376 39.653126 34.7 38.246876Q33.35625 36.825 33.35625 34.465626L33.35625 34.121876Q33.35625 32.559376 33.95 31.325Q34.559376 30.090626 35.6375 29.3875Q36.715626 28.684376 37.98125 28.684376Q40.04375 28.684376 41.184376 30.04375Q42.325 31.403126 42.325 33.934376L42.325 34.684376L35.16875 34.684376Q35.2 36.246876 36.075 37.215626Q36.95 38.16875 38.29375 38.16875Q39.2625 38.16875 39.91875 37.778126Q40.590626 37.3875 41.090626 36.746876L42.184376 37.60625Q40.85625 39.653126 38.2 39.653126ZM37.98125 30.16875Q36.8875 30.16875 36.1375 30.965626Q35.403126 31.7625 35.23125 33.2L40.5125 33.2L40.5125 33.059376Q40.434376 31.684376 39.7625 30.934376Q39.10625 30.16875 37.98125 30.16875ZM46.528126 28.8875L46.590626 30.215626Q47.79375 28.684376 49.746876 28.684376Q53.10625 28.684376 53.121876 32.465626L53.121876 39.45L51.325 39.45L51.325 32.45Q51.309376 31.309376 50.79375 30.7625Q50.29375 30.215626 49.2 30.215626Q48.325 30.215626 47.653126 30.684376Q46.996876 31.153126 46.621876 31.91875L46.621876 39.45L44.825 39.45L44.825 28.8875L46.528126 28.8875ZM58.2625 26.325L58.2625 28.8875L60.246876 28.8875L60.246876 30.278126L58.2625 30.278126L58.2625 36.825Q58.2625 37.465626 58.528126 37.79375Q58.79375 38.10625 59.434376 38.10625Q59.746876 38.10625 60.29375 37.98125L60.29375 39.45Q59.575 39.653126 58.903126 39.653126Q57.7 39.653126 57.075 38.91875Q56.465626 38.184376 56.465626 36.825L56.465626 30.278126L54.54375 30.278126L54.54375 28.8875L56.465626 28.8875L56.465626 26.325L58.2625 26.325ZM64.77812 39.45L62.98125 39.45L62.98125 28.8875L64.77812 28.8875L64.77812 39.45ZM62.825 26.075Q62.825 25.6375 63.090626 25.340626Q63.371876 25.028126 63.8875 25.028126Q64.41875 25.028126 64.68437 25.340626Q64.96562 25.6375 64.96562 26.075Q64.96562 26.5125 64.68437 26.809376Q64.41875 27.10625 63.8875 27.10625Q63.371876 27.10625 63.090626 26.809376Q62.825 26.5125 62.825 26.075ZM69.5125 28.8875L69.55937 30.059376Q70.73125 28.684376 72.7 28.684376Q74.91875 28.684376 75.71562 30.3875Q76.24687 29.621876 77.09062 29.153126Q77.93437 28.684376 79.09062 28.684376Q82.55937 28.684376 82.62187 32.371876L82.62187 39.45L80.80937 39.45L80.80937 32.48125Q80.80937 31.340626 80.29375 30.778126Q79.77812 30.215626 78.55937 30.215626Q77.55937 30.215626 76.8875 30.825Q76.23125 31.41875 76.12187 32.434376L76.12187 39.45L74.30937 39.45L74.30937 32.528126Q74.30937 30.215626 72.04375 30.215626Q70.2625 30.215626 69.62187 31.73125L69.62187 39.45L67.80937 39.45L67.80937 28.8875L69.5125 28.8875ZM90.2 39.653126Q88.05937 39.653126 86.7 38.246876Q85.35625 36.825 85.35625 34.465626L85.35625 34.121876Q85.35625 32.559376 85.95 31.325Q86.55937 30.090626 87.6375 29.3875Q88.71562 28.684376 89.98125 28.684376Q92.04375 28.684376 93.18437 30.04375Q94.325 31.403126 94.325 33.934376L94.325 34.684376L87.16875 34.684376Q87.2 36.246876 88.075 37.215626Q88.95 38.16875 90.29375 38.16875Q91.2625 38.16875 91.91875 37.778126Q92.59062 37.3875 93.09062 36.746876L94.18437 37.60625Q92.85625 39.653126 90.2 39.653126ZM89.98125 30.16875Q88.8875 30.16875 88.1375 30.965626Q87.40312 31.7625 87.23125 33.2L92.5125 33.2L92.5125 33.059376Q92.43437 31.684376 91.7625 30.934376Q91.10625 30.16875 89.98125 30.16875ZM98.52812 28.8875L98.59062 30.215626Q99.79375 28.684376 101.74687 28.684376Q105.10625 28.684376 105.12187 32.465626L105.12187 39.45L103.325 39.45L103.325 32.45Q103.30937 31.309376 102.79375 30.7625Q102.29375 30.215626 101.2 30.215626Q100.325 30.215626 99.65312 30.684376Q98.99687 31.153126 98.62187 31.91875L98.62187 39.45L96.825 39.45L96.825 28.8875L98.52812 28.8875ZM110.2625 26.325L110.2625 28.8875L112.24687 28.8875L112.24687 30.278126L110.2625 30.278126L110.2625 36.825Q110.2625 37.465626 110.52812 37.79375Q110.79375 38.10625 111.43437 38.10625Q111.74687 38.10625 112.29375 37.98125L112.29375 39.45Q111.575 39.653126 110.90312 39.653126Q109.7 39.653126 109.075 38.91875Q108.46562 38.184376 108.46562 36.825L108.46562 30.278126L106.54375 30.278126L106.54375 28.8875L108.46562 28.8875L108.46562 26.325L110.2625 26.325ZM126.34062 39.45Q126.18437 39.1375 126.09062 38.340626Q124.825 39.653126 123.075 39.653126Q121.5125 39.653126 120.5125 38.7625Q119.5125 37.871876 119.5125 36.5125Q119.5125 34.871876 120.7625 33.965626Q122.02812 33.04375 124.29375 33.04375L126.05937 33.04375L126.05937 32.215626Q126.05937 31.2625 125.48125 30.7Q124.91875 30.1375 123.825 30.1375Q122.85625 30.1375 122.2 30.6375Q121.54375 31.121876 121.54375 31.809376L119.73125 31.809376Q119.73125 31.028126 120.29375 30.29375Q120.85625 29.54375 121.80937 29.121876Q122.77812 28.684376 123.93437 28.684376Q125.7625 28.684376 126.79375 29.60625Q127.825 30.5125 127.87187 32.121876L127.87187 36.98125Q127.87187 38.434376 128.23125 39.29375L128.23125 39.45L126.34062 39.45ZM123.34062 38.075Q124.2 38.075 124.95 37.6375Q125.71562 37.2 126.05937 36.496876L126.05937 34.325L124.6375 34.325Q121.325 34.325 121.325 36.2625Q121.325 37.121876 121.8875 37.60625Q122.45 38.075 123.34062 38.075ZM132.52812 28.8875L132.59062 30.215626Q133.79375 28.684376 135.74687 28.684376Q139.10625 28.684376 139.12187 32.465626L139.12187 39.45L137.325 39.45L137.325 32.45Q137.30937 31.309376 136.79375 30.7625Q136.29375 30.215626 135.2 30.215626Q134.325 30.215626 133.65312 30.684376Q132.99687 31.153126 132.62187 31.91875L132.62187 39.45L130.825 39.45L130.825 28.8875L132.52812 28.8875ZM148.34062 39.45Q148.18437 39.1375 148.09062 38.340626Q146.825 39.653126 145.075 39.653126Q143.5125 39.653126 142.5125 38.7625Q141.5125 37.871876 141.5125 36.5125Q141.5125 34.871876 142.7625 33.965626Q144.02812 33.04375 146.29375 33.04375L148.05937 33.04375L148.05937 32.215626Q148.05937 31.2625 147.48125 30.7Q146.91875 30.1375 145.825 30.1375Q144.85625 30.1375 144.2 30.6375Q143.54375 31.121876 143.54375 31.809376L141.73125 31.809376Q141.73125 31.028126 142.29375 30.29375Q142.85625 29.54375 143.80937 29.121876Q144.77812 28.684376 145.93437 28.684376Q147.7625 28.684376 148.79375 29.60625Q149.825 30.5125 149.87187 32.121876L149.87187 36.98125Q149.87187 38.434376 150.23125 39.29375L150.23125 39.45L148.34062 39.45ZM145.34062 38.075Q146.2 38.075 146.95 37.6375Q147.71562 37.2 148.05937 36.496876L148.05937 34.325L146.6375 34.325Q143.325 34.325 143.325 36.2625Q143.325 37.121876 143.8875 37.60625Q144.45 38.075 145.34062 38.075ZM156.27812 36.809376L158.73125 28.8875L160.66875 28.8875L156.41875 41.075Q155.43437 43.715626 153.29375 43.715626L152.95 43.684376L152.27812 43.559376L152.27812 42.090626L152.7625 42.1375Q153.68437 42.1375 154.18437 41.7625Q154.7 41.3875 155.02812 40.403126L155.43437 39.325L151.66875 28.8875L153.6375 28.8875L156.27812 36.809376ZM167.96562 36.653126Q167.96562 35.91875 167.41875 35.5125Q166.87187 35.10625 165.49687 34.809376Q164.12187 34.5125 163.30937 34.10625Q162.5125 33.7 162.12187 33.1375Q161.74687 32.559376 161.74687 31.778126Q161.74687 30.48125 162.84062 29.590626Q163.93437 28.684376 165.65312 28.684376Q167.45 28.684376 168.55937 29.621876Q169.68437 30.54375 169.68437 31.98125L167.85625 31.98125Q167.85625 31.246876 167.23125 30.715626Q166.60625 30.16875 165.65312 30.16875Q164.65312 30.16875 164.09062 30.60625Q163.54375 31.028126 163.54375 31.73125Q163.54375 32.371876 164.05937 32.715626Q164.575 33.04375 165.93437 33.35625Q167.29375 33.653126 168.12187 34.075Q168.96562 34.48125 169.37187 35.075Q169.77812 35.66875 169.77812 36.5125Q169.77812 37.934376 168.6375 38.79375Q167.5125 39.653126 165.7 39.653126Q164.43437 39.653126 163.45 39.2Q162.48125 38.746876 161.91875 37.95Q161.37187 37.1375 161.37187 36.2L163.18437 36.2Q163.23125 37.10625 163.90312 37.6375Q164.59062 38.16875 165.7 38.16875Q166.73125 38.16875 167.34062 37.7625Q167.96562 37.340626 167.96562 36.653126ZM173.77812 39.45L171.98125 39.45L171.98125 28.8875L173.77812 28.8875L173.77812 39.45ZM171.825 26.075Q171.825 25.6375 172.09062 25.340626Q172.37187 25.028126 172.8875 25.028126Q173.41875 25.028126 173.68437 25.340626Q173.96562 25.6375 173.96562 26.075Q173.96562 26.5125 173.68437 26.809376Q173.41875 27.10625 172.8875 27.10625Q172.37187 27.10625 172.09062 26.809376Q171.825 26.5125 171.825 26.075ZM182.96562 36.653126Q182.96562 35.91875 182.41875 35.5125Q181.87187 35.10625 180.49687 34.809376Q179.12187 34.5125 178.30937 34.10625Q177.5125 33.7 177.12187 33.1375Q176.74687 32.559376 176.74687 31.778126Q176.74687 30.48125 177.84062 29.590626Q178.93437 28.684376 180.65312 28.684376Q182.45 28.684376 183.55937 29.621876Q184.68437 30.54375 184.68437 31.98125L182.85625 31.98125Q182.85625 31.246876 182.23125 30.715626Q181.60625 30.16875 180.65312 30.16875Q179.65312 30.16875 179.09062 30.60625Q178.54375 31.028126 178.54375 31.73125Q178.54375 32.371876 179.05937 32.715626Q179.575 33.04375 180.93437 33.35625Q182.29375 33.653126 183.12187 34.075Q183.96562 34.48125 184.37187 35.075Q184.77812 35.66875 184.77812 36.5125Q184.77812 37.934376 183.6375 38.79375Q182.5125 39.653126 180.7 39.653126Q179.43437 39.653126 178.45 39.2Q177.48125 38.746876 176.91875 37.95Q176.37187 37.1375 176.37187 36.2L178.18437 36.2Q178.23125 37.10625 178.90312 37.6375Q179.59062 38.16875 180.7 38.16875Q181.73125 38.16875 182.34062 37.7625Q182.96562 37.340626 182.96562 36.653126ZM205.7625 34.278126Q205.7625 36.7 204.65312 38.184376Q203.54375 39.653126 201.66875 39.653126Q199.65312 39.653126 198.55937 38.23125L198.48125 39.45L196.825 39.45L196.825 24.45L198.62187 24.45L198.62187 30.04375Q199.71562 28.684376 201.6375 28.684376Q203.55937 28.684376 204.65312 30.1375Q205.7625 31.590626 205.7625 34.121876L205.7625 34.278126ZM203.95 34.075Q203.95 32.23125 203.23125 31.23125Q202.52812 30.215626 201.2 30.215626Q199.40312 30.215626 198.62187 31.8875L198.62187 36.45Q199.45 38.10625 201.21562 38.10625Q202.5125 38.10625 203.23125 37.10625Q203.95 36.10625 203.95 34.075ZM211.27812 36.809376L213.73125 28.8875L215.66875 28.8875L211.41875 41.075Q210.43437 43.715626 208.29375 43.715626L207.95 43.684376L207.27812 43.559376L207.27812 42.090626L207.7625 42.1375Q208.68437 42.1375 209.18437 41.7625Q209.7 41.3875 210.02812 40.403126L210.43437 39.325L206.66875 28.8875L208.6375 28.8875L211.27812 36.809376ZM223.62187 30.16875Q224.825 28.684376 226.74687 28.684376Q230.10625 28.684376 230.12187 32.465626L230.12187 39.45L228.325 39.45L228.325 32.45Q228.30937 31.309376 227.79375 30.7625Q227.29375 30.215626 226.2 30.215626Q225.325 30.215626 224.65312 30.684376Q223.99687 31.153126 223.62187 31.91875L223.62187 39.45L221.825 39.45L221.825 24.45L223.62187 24.45L223.62187 30.16875ZM237.91875 30.496876Q237.5125 30.434376 237.04375 30.434376Q235.2625 30.434376 234.62187 31.95L234.62187 39.45L232.825 39.45L232.825 28.8875L234.575 28.8875L234.60625 30.10625Q235.49687 28.684376 237.12187 28.684376Q237.65312 28.684376 237.91875 28.825L237.91875 30.496876ZM241.77812 39.45L239.98125 39.45L239.98125 28.8875L241.77812 28.8875L241.77812 39.45ZM239.825 26.075Q239.825 25.6375 240.09062 25.340626Q240.37187 25.028126 240.8875 25.028126Q241.41875 25.028126 241.68437 25.340626Q241.96562 25.6375 241.96562 26.075Q241.96562 26.5125 241.68437 26.809376Q241.41875 27.10625 240.8875 27.10625Q240.37187 27.10625 240.09062 26.809376Q239.825 26.5125 239.825 26.075ZM247.2625 26.325L247.2625 28.8875L249.24687 28.8875L249.24687 30.278126L247.2625 30.278126L247.2625 36.825Q247.2625 37.465626 247.52812 37.79375Q247.79375 38.10625 248.43437 38.10625Q248.74687 38.10625 249.29375 37.98125L249.29375 39.45Q248.575 39.653126 247.90312 39.653126Q246.7 39.653126 246.075 38.91875Q245.46562 38.184376 245.46562 36.825L245.46562 30.278126L243.54375 30.278126L243.54375 28.8875L245.46562 28.8875L245.46562 26.325L247.2625 26.325ZM253.77812 39.45L251.98125 39.45L251.98125 28.8875L253.77812 28.8875L253.77812 39.45ZM251.825 26.075Q251.825 25.6375 252.09062 25.340626Q252.37187 25.028126 252.8875 25.028126Q253.41875 25.028126 253.68437 25.340626Q253.96562 25.6375 253.96562 26.075Q253.96562 26.5125 253.68437 26.809376Q253.41875 27.10625 252.8875 27.10625Q252.37187 27.10625 252.09062 26.809376Q251.825 26.5125 251.825 26.075ZM259.7625 34.559376L258.6375 35.73125L258.6375 39.45L256.825 39.45L256.825 24.45L258.6375 24.45L258.6375 33.528126L259.60626 32.35625L262.8875 28.8875L265.09064 28.8875L260.98126 33.29375L265.575 39.45L263.45 39.45L259.7625 34.559376ZM278.34064 39.45Q278.1844 39.1375 278.09064 38.340626Q276.825 39.653126 275.075 39.653126Q273.5125 39.653126 272.5125 38.7625Q271.5125 37.871876 271.5125 36.5125Q271.5125 34.871876 272.7625 33.965626Q274.02814 33.04375 276.29376 33.04375L278.0594 33.04375L278.0594 32.215626Q278.0594 31.2625 277.48126 30.7Q276.91876 30.1375 275.825 30.1375Q274.85626 30.1375 274.2 30.6375Q273.54376 31.121876 273.54376 31.809376L271.73126 31.809376Q271.73126 31.028126 272.29376 30.29375Q272.85626 29.54375 273.8094 29.121876Q274.77814 28.684376 275.9344 28.684376Q277.7625 28.684376 278.79376 29.60625Q279.825 30.5125 279.8719 32.121876L279.8719 36.98125Q279.8719 38.434376 280.23126 39.29375L280.23126 39.45L278.34064 39.45ZM275.34064 38.075Q276.2 38.075 276.95 37.6375Q277.71564 37.2 278.0594 36.496876L278.0594 34.325L276.6375 34.325Q273.325 34.325 273.325 36.2625Q273.325 37.121876 273.8875 37.60625Q274.45 38.075 275.34064 38.075ZM285.7625 34.559376L284.6375 35.73125L284.6375 39.45L282.825 39.45L282.825 24.45L284.6375 24.45L284.6375 33.528126L285.60626 32.35625L288.8875 28.8875L291.09064 28.8875L286.98126 33.29375L291.575 39.45L289.45 39.45L285.7625 34.559376ZM292.34064 34.075Q292.34064 32.5125 292.95 31.278126Q293.5594 30.028126 294.6375 29.35625Q295.73126 28.684376 297.1375 28.684376Q299.29376 28.684376 300.6219 30.184376Q301.96564 31.66875 301.96564 34.153126L301.96564 34.278126Q301.96564 35.825 301.3719 37.059376Q300.77814 38.278126 299.66876 38.965626Q298.575 39.653126 297.15314 39.653126Q295.0125 39.653126 293.66876 38.153126Q292.34064 36.653126 292.34064 34.2L292.34064 34.075ZM294.15314 34.278126Q294.15314 36.04375 294.96564 37.10625Q295.79376 38.16875 297.15314 38.16875Q298.52814 38.16875 299.34064 37.090626Q300.15314 36.0125 300.15314 34.075Q300.15314 32.325 299.325 31.246876Q298.4969 30.16875 297.1375 30.16875Q295.79376 30.16875 294.96564 31.23125Q294.15314 32.29375 294.15314 34.278126ZM305.77814 39.45L303.98126 39.45L303.98126 24.45L305.77814 24.45L305.77814 39.45ZM311.7625 34.559376L310.6375 35.73125L310.6375 39.45L308.825 39.45L308.825 24.45L310.6375 24.45L310.6375 33.528126L311.60626 32.35625L314.8875 28.8875L317.09064 28.8875L312.98126 33.29375L317.575 39.45L315.45 39.45L311.7625 34.559376ZM325.34064 39.45Q325.1844 39.1375 325.09064 38.340626Q323.825 39.653126 322.075 39.653126Q320.5125 39.653126 319.5125 38.7625Q318.5125 37.871876 318.5125 36.5125Q318.5125 34.871876 319.7625 33.965626Q321.02814 33.04375 323.29376 33.04375L325.0594 33.04375L325.0594 32.215626Q325.0594 31.2625 324.48126 30.7Q323.91876 30.1375 322.825 30.1375Q321.85626 30.1375 321.2 30.6375Q320.54376 31.121876 320.54376 31.809376L318.73126 31.809376Q318.73126 31.028126 319.29376 30.29375Q319.85626 29.54375 320.8094 29.121876Q321.77814 28.684376 322.9344 28.684376Q324.7625 28.684376 325.79376 29.60625Q326.825 30.5125 326.8719 32.121876L326.8719 36.98125Q326.8719 38.434376 327.23126 39.29375L327.23126 39.45L325.34064 39.45ZM322.34064 38.075Q323.2 38.075 323.95 37.6375Q324.71564 37.2 325.0594 36.496876L325.0594 34.325L323.6375 34.325Q320.325 34.325 320.325 36.2625Q320.325 37.121876 320.8875 37.60625Q321.45 38.075 322.34064 38.075ZM334.91876 30.496876Q334.5125 30.434376 334.04376 30.434376Q332.2625 30.434376 331.6219 31.95L331.6219 39.45L329.825 39.45L329.825 28.8875L331.575 28.8875L331.60626 30.10625Q332.4969 28.684376 334.1219 28.684376Q334.65314 28.684376 334.91876 28.825L334.91876 30.496876Z" fill-rule="nonzero"/></svg>